<svg height="512pt" viewBox="1 0 511 512" width="512pt" xmlns="http://www.w3.org/2000/svg"><path d="m135.738281 361.070312c7.140625 8.425782 6.097657 21.046876-2.328125 28.1875-8.4375 7.148438-21.058594 6.085938-28.1875-2.328124l-100.007812-118c-6.378906-7.523438-6.191406-18.558594 0-25.859376l100.007812-118c7.140625-8.429687 19.761719-9.46875 28.1875-2.328124 8.425782 7.140624 9.46875 19.761718 2.328125 28.1875l-72.097656 85.070312h355.042969c11.046875 0 20.003906 8.953125 20.003906 20s-8.957031 20-20.003906 20h-355.042969zm356.761719-361.070312h-173.820312c-11.046876 0-20 8.953125-20 20s8.953124 20 20 20h153.816406v432h-153.816406c-11.046876 0-20 8.953125-20 20s8.953124 20 20 20h173.820312c11.042969 0 20-8.953125 20-20v-472c0-11.046875-8.957031-20-20-20zm0 0"/></svg>